# Blender 4.5.3 LTS
# www.blender.org
mtllib cube.mtl
o Cube
v 1.000000 1.000000 -1.000000
v 1.000000 -1.000000 -1.000000
v 1.000000 1.000000 1.000000
v 1.000000 -1.000000 1.000000
v -1.000000 1.000000 -1.000000
v -1.000000 -1.000000 -1.000000
v -1.000000 1.000000 1.000000
v -1.000000 -1.000000 1.000000
v 1.000000 1.000000 -1.000000
v -1.000000 1.000000 -1.000000
v -1.000000 1.000000 1.000000
v 1.000000 1.000000 1.000000
v 1.000000 -1.000000 1.000000
v 1.000000 1.000000 1.000000
v -1.000000 1.000000 1.000000
v -1.000000 -1.000000 1.000000
v -1.000000 -1.000000 1.000000
v -1.000000 1.000000 1.000000
v -1.000000 1.000000 -1.000000
v -1.000000 -1.000000 -1.000000
v -1.000000 -1.000000 -1.000000
v 1.000000 -1.000000 -1.000000
v 1.000000 -1.000000 1.000000
v -1.000000 -1.000000 1.000000
v 1.000000 -1.000000 -1.000000
v 1.000000 1.000000 -1.000000
v 1.000000 1.000000 1.000000
v 1.000000 -1.000000 1.000000
v -1.000000 -1.000000 -1.000000
v -1.000000 1.000000 -1.000000
v 1.000000 1.000000 -1.000000
v 1.000000 -1.000000 -1.000000
v 0.908129 1.000000 -0.908129
v -0.908129 1.000000 -0.908129
v -0.908129 1.000000 0.908129
v 0.908129 1.000000 0.908129
v 0.908129 -0.908129 1.000000
v 0.908129 0.908129 1.000000
v -0.908129 0.908129 1.000000
v -0.908129 -0.908129 1.000000
v -1.000000 -0.908129 0.908129
v -1.000000 0.908129 0.908129
v -1.000000 0.908129 -0.908129
v -1.000000 -0.908129 -0.908129
v -0.908129 -1.000000 -0.908129
v 0.908129 -1.000000 -0.908129
v 0.908129 -1.000000 0.908129
v -0.908129 -1.000000 0.908129
v 1.000000 -0.908129 -0.908129
v 1.000000 0.908129 -0.908129
v 1.000000 0.908129 0.908129
v 1.000000 -0.908129 0.908129
v -0.908129 -0.908129 -1.000000
v -0.908129 0.908129 -1.000000
v 0.908129 0.908129 -1.000000
v 0.908129 -0.908129 -1.000000
v 0.879054 0.950000 -0.879054
v -0.879054 0.950000 -0.879054
v -0.879054 0.950000 0.879054
v 0.879054 0.950000 0.879054
v 0.879054 -0.879054 0.950000
v 0.879054 0.879054 0.950000
v -0.879054 0.879054 0.950000
v -0.879054 -0.879054 0.950000
v -0.950000 -0.879054 0.879054
v -0.950000 0.879054 0.879054
v -0.950000 0.879054 -0.879054
v -0.950000 -0.879054 -0.879054
v -0.879054 -0.950000 -0.879054
v 0.879054 -0.950000 -0.879054
v 0.879054 -0.950000 0.879054
v -0.879054 -0.950000 0.879054
v 0.950000 -0.879054 -0.879054
v 0.950000 0.879054 -0.879054
v 0.950000 0.879054 0.879054
v 0.950000 -0.879054 0.879054
v -0.879054 -0.879054 -0.950000
v -0.879054 0.879054 -0.950000
v 0.879054 0.879054 -0.950000
v 0.879054 -0.879054 -0.950000
vn -0.0000 1.0000 -0.0000
vn -0.0000 -0.0000 1.0000
vn -1.0000 -0.0000 -0.0000
vn -0.0000 -1.0000 -0.0000
vn 1.0000 -0.0000 -0.0000
vn -0.0000 -0.0000 -1.0000
vn -0.0000 0.5027 0.8645
vn 0.8645 0.5027 -0.0000
vn -0.0000 0.5027 -0.8645
vn -0.8645 0.5027 -0.0000
vn -0.8645 -0.0000 0.5027
vn -0.0000 -0.8645 0.5027
vn 0.8645 -0.0000 0.5027
vn -0.0000 0.8645 0.5027
vn -0.5027 -0.0000 -0.8645
vn -0.5027 -0.8645 -0.0000
vn -0.5027 -0.0000 0.8645
vn -0.5027 0.8645 -0.0000
vn -0.0000 -0.5027 0.8645
vn -0.8645 -0.5027 -0.0000
vn -0.0000 -0.5027 -0.8645
vn 0.8645 -0.5027 -0.0000
vn 0.5027 -0.0000 0.8645
vn 0.5027 -0.8645 -0.0000
vn 0.5027 -0.0000 -0.8645
vn 0.5027 0.8645 -0.0000
vn 0.8645 -0.0000 -0.5027
vn -0.0000 -0.8645 -0.5027
vn -0.8645 -0.0000 -0.5027
vn -0.0000 0.8645 -0.5027
vt 0.640118 0.515118
vt 0.859882 0.515118
vt 0.859882 0.734882
vt 0.640118 0.734882
vt 0.390118 0.765118
vt 0.609882 0.765118
vt 0.609882 0.984882
vt 0.390118 0.984882
vt 0.390118 0.015118
vt 0.609882 0.015118
vt 0.609882 0.234882
vt 0.390118 0.234882
vt 0.140118 0.515118
vt 0.359882 0.515118
vt 0.359882 0.734882
vt 0.140118 0.734882
vt 0.390118 0.515118
vt 0.609882 0.515118
vt 0.609882 0.734882
vt 0.390118 0.734882
vt 0.390118 0.265118
vt 0.609882 0.265118
vt 0.609882 0.484882
vt 0.390118 0.484882
vt 0.625000 0.500000
vt 0.875000 0.500000
vt 0.875000 0.750000
vt 0.625000 0.750000
vt 0.375000 0.750000
vt 0.625000 1.000000
vt 0.375000 1.000000
vt 0.375000 0.000000
vt 0.625000 0.000000
vt 0.625000 0.250000
vt 0.375000 0.250000
vt 0.125000 0.500000
vt 0.375000 0.500000
vt 0.125000 0.750000
vt 0.863516 0.511484
vt 0.636484 0.511484
vt 0.863516 0.738516
vt 0.636484 0.738516
vt 0.613516 0.761484
vt 0.386484 0.761484
vt 0.613516 0.988516
vt 0.386484 0.988516
vt 0.613516 0.011484
vt 0.386484 0.011484
vt 0.613516 0.238516
vt 0.386484 0.238516
vt 0.363516 0.511484
vt 0.136484 0.511484
vt 0.363516 0.738516
vt 0.136484 0.738516
vt 0.613516 0.511484
vt 0.386484 0.511484
vt 0.613516 0.738516
vt 0.386484 0.738516
vt 0.613516 0.261484
vt 0.386484 0.261484
vt 0.613516 0.488516
vt 0.386484 0.488516
s 0
usemtl Material
f 57/1/1 58/2/1 59/3/1 60/4/1
f 61/5/2 62/6/2 63/7/2 64/8/2
f 65/9/3 66/10/3 67/11/3 68/12/3
f 69/13/4 70/14/4 71/15/4 72/16/4
f 73/17/5 74/18/5 75/19/5 76/20/5
f 77/21/6 78/22/6 79/23/6 80/24/6
f 1/25/1 5/26/1 10/26/1 9/25/1
f 5/26/1 7/27/1 11/27/1 10/26/1
f 7/27/1 3/28/1 12/28/1 11/27/1
f 3/28/1 1/25/1 9/25/1 12/28/1
f 4/29/1 3/28/1 14/28/1 13/29/1
f 3/28/1 7/30/1 15/30/1 14/28/1
f 7/30/1 8/31/1 16/31/1 15/30/1
f 8/31/1 4/29/1 13/29/1 16/31/1
f 8/32/1 7/33/1 18/33/1 17/32/1
f 7/33/1 5/34/1 19/34/1 18/33/1
f 5/34/1 6/35/1 20/35/1 19/34/1
f 6/35/1 8/32/1 17/32/1 20/35/1
f 6/36/1 2/37/1 22/37/1 21/36/1
f 2/37/1 4/29/1 23/29/1 22/37/1
f 4/29/1 8/38/1 24/38/1 23/29/1
f 8/38/1 6/36/1 21/36/1 24/38/1
f 2/37/1 1/25/1 26/25/1 25/37/1
f 1/25/1 3/28/1 27/28/1 26/25/1
f 3/28/1 4/29/1 28/29/1 27/28/1
f 4/29/1 2/37/1 25/37/1 28/29/1
f 6/35/1 5/34/1 30/34/1 29/35/1
f 5/34/1 1/25/1 31/25/1 30/34/1
f 1/25/1 2/37/1 32/37/1 31/25/1
f 2/37/1 6/35/1 29/35/1 32/37/1
f 9/25/1 10/26/1 34/39/1 33/40/1
f 10/26/1 11/27/1 35/41/1 34/39/1
f 11/27/1 12/28/1 36/42/1 35/41/1
f 12/28/1 9/25/1 33/40/1 36/42/1
f 13/29/2 14/28/2 38/43/2 37/44/2
f 14/28/2 15/30/2 39/45/2 38/43/2
f 15/30/2 16/31/2 40/46/2 39/45/2
f 16/31/2 13/29/2 37/44/2 40/46/2
f 17/32/3 18/33/3 42/47/3 41/48/3
f 18/33/3 19/34/3 43/49/3 42/47/3
f 19/34/3 20/35/3 44/50/3 43/49/3
f 20/35/3 17/32/3 41/48/3 44/50/3
f 21/36/4 22/37/4 46/51/4 45/52/4
f 22/37/4 23/29/4 47/53/4 46/51/4
f 23/29/4 24/38/4 48/54/4 47/53/4
f 24/38/4 21/36/4 45/52/4 48/54/4
f 25/37/5 26/25/5 50/55/5 49/56/5
f 26/25/5 27/28/5 51/57/5 50/55/5
f 27/28/5 28/29/5 52/58/5 51/57/5
f 28/29/5 25/37/5 49/56/5 52/58/5
f 29/35/6 30/34/6 54/59/6 53/60/6
f 30/34/6 31/25/6 55/61/6 54/59/6
f 31/25/6 32/37/6 56/62/6 55/61/6
f 32/37/6 29/35/6 53/60/6 56/62/6
f 33/40/7 34/39/7 58/2/7 57/1/7
f 34/39/8 35/41/8 59/3/8 58/2/8
f 35/41/9 36/42/9 60/4/9 59/3/9
f 36/42/10 33/40/10 57/1/10 60/4/10
f 37/44/11 38/43/11 62/6/11 61/5/11
f 38/43/12 39/45/12 63/7/12 62/6/12
f 39/45/13 40/46/13 64/8/13 63/7/13
f 40/46/14 37/44/14 61/5/14 64/8/14
f 41/48/15 42/47/15 66/10/15 65/9/15
f 42/47/16 43/49/16 67/11/16 66/10/16
f 43/49/17 44/50/17 68/12/17 67/11/17
f 44/50/18 41/48/18 65/9/18 68/12/18
f 45/52/19 46/51/19 70/14/19 69/13/19
f 46/51/20 47/53/20 71/15/20 70/14/20
f 47/53/21 48/54/21 72/16/21 71/15/21
f 48/54/22 45/52/22 69/13/22 72/16/22
f 49/56/23 50/55/23 74/18/23 73/17/23
f 50/55/24 51/57/24 75/19/24 74/18/24
f 51/57/25 52/58/25 76/20/25 75/19/25
f 52/58/26 49/56/26 73/17/26 76/20/26
f 53/60/27 54/59/27 78/22/27 77/21/27
f 54/59/28 55/61/28 79/23/28 78/22/28
f 55/61/29 56/62/29 80/24/29 79/23/29
f 56/62/30 53/60/30 77/21/30 80/24/30
